# xmcd
#
# Track frame offsets: 
#        150
#        15212
#        31312
#        46982
#        56515
#        75127
#        85677
#        96835
#        113312
#        134862
#        145817
#        164512
#        174800
#
# Disc length: 2480 seconds
#
# Revision: 3
# Processed by: cddbd v1.5.2PL0 Copyright (c) Steve Scherf et al.
# Submitted via: ExactAudioCopy v0.99pb4
#
DISCID=8f09ae0d
DTITLE=Beausoleil - Hot Chili Mama
DYEAR=1900
DGENRE=Cajun
TTITLE0=Acadian Two-Step
TTITLE1=Les Bons Temps Rouler Waltz
TTITLE2=Joe Pitre's So Bad
TTITLE3=Canray's Contredanse
TTITLE4=La Chanson De Cinquante Sous
TTITLE5=Je Veux Me Marier
TTITLE6=Chanson De Sagesse
TTITLE7=Hot Chili Mama
TTITLE8=Je Suis Marie Avec Une, Mais En Amor Avec Une Autre
TTITLE9=The Mosquito That Ate Up My Sweetheart in New Iberia Polka
TTITLE10=Grand Mallet
TTITLE11=Belle
TTITLE12=Oberlin Two-Step
EXTD=
EXTT0=
EXTT1=
EXTT2=
EXTT3=
EXTT4=
EXTT5=
EXTT6=
EXTT7=
EXTT8=
EXTT9=
EXTT10=
EXTT11=
EXTT12=
PLAYORDER=
